<svg xmlns="http://www.w3.org/2000/svg" xml:space="preserve" viewBox="0 0 244 88">
  <path d="M245 72v17c-79.02 0-158.042 0-237.82-.283 8.845-9.483 18.45-18.684 27.833-27.674.984 1.94 2.31 4.512 3.601 7.102 4.187 8.392 14.628 10.115 22.378 4.416 9.237-6.792 15.418-16.208 22.31-25.095 6.336-8.172 13.4-15.79 20.326-23.489 2.633-2.926 5.41-2.336 7.689.827 3.877 5.384 7.662 10.84 11.704 16.098 10.389 13.514 20.85 26.952 35.597 36.231 8.149 5.128 21.795 4.509 23.295-9.131.743-6.757.41-13.653.252-20.479-.112-4.79-.752-9.568-1.21-14.977 2.95 1.277 5.34 1.922 7.296 3.222 14.345 9.538 28.536 19.31 42.93 28.774 4.357 2.865 9.2 4.993 13.819 7.458z"/>
  <path fill="#F8F8F8" d="M245 71.6c-4.62-2.065-9.462-4.193-13.819-7.058-14.394-9.464-28.585-19.236-42.93-28.774-1.956-1.3-4.346-1.945-7.295-3.222.457 5.41 1.097 10.187 1.209 14.977.159 6.826.49 13.722-.252 20.479-1.5 13.64-15.146 14.259-23.295 9.131-14.748-9.28-25.208-22.717-35.597-36.23-4.042-5.259-7.827-10.715-11.704-16.1-2.278-3.162-5.056-3.752-7.69-.826-6.925 7.698-13.99 15.317-20.325 23.489-6.892 8.887-13.073 18.303-22.31 25.095-7.75 5.7-18.19 3.976-22.378-4.416-1.292-2.59-2.617-5.163-3.601-7.102-9.384 8.99-18.988 18.19-28.302 27.674-1.595-.949-6.193 3.247-5.417-2.923 3.105-4.107 5.922-8.003 8.724-11.91 7.048-9.825 13.97-19.744 21.2-29.434 2.391-3.206 6.381-4.6 10.052-3.218 2.033.765 3.578 3.645 4.667 5.899 1.45 3.003 2.075 6.396 3.385 9.482.733 1.728 1.514 4.61 3.983.746 5.715-8.944 11.56-17.823 17.776-26.423 7.732-10.7 14.353-22.599 27.477-28.096.344-.144.303-1.206.442-1.84 6.021 0 12.042 0 18.24.298 3.894 3.118 8.382 5.329 11.188 8.871 8.554 10.8 16.355 22.19 24.669 33.186 3.374 4.462 7.313 8.497 10.982 12.712.432-10.58-1.37-20.446 1.556-30.324 2.34-7.898 8.456-9.076 14.145-8.648 1.863.14 3.68 1.03 5.498 1.64 8.696 2.917 15.937 8.106 23.008 13.858 12.858 10.46 25.122 21.419 34.87 34.95.282.392 1.215.315 1.844.457v3.6z"/>
  <path d="M98.531 1c.33.634.371 1.696.027 1.84-13.124 5.497-19.745 17.396-27.477 28.096-6.215 8.6-12.061 17.48-17.776 26.423-2.469 3.863-3.25.982-3.983-.746-1.31-3.086-1.934-6.479-3.385-9.482-1.089-2.254-2.634-5.134-4.667-5.9-3.67-1.38-7.66.013-10.053 3.22-7.229 9.69-14.151 19.608-21.199 29.433-2.802 3.907-5.62 7.803-8.724 11.41C1 57.067 1 29.134 1 1h97.531zM245 67.531c-.63.327-1.562.404-1.844.012-9.748-13.531-22.012-24.49-34.87-34.95-7.071-5.752-14.312-10.941-23.008-13.858-1.818-.61-3.635-1.5-5.498-1.64-5.69-.428-11.805.75-14.145 8.648-2.926 9.878-1.124 19.744-1.556 30.324-3.67-4.215-7.608-8.25-10.982-12.712-8.314-10.996-16.115-22.387-24.67-33.186-2.805-3.542-7.293-5.753-10.72-8.87C160.238 1 202.476 1 245 1v66.531z"/>
</svg>
